<svg viewBox="0 0 24 24" xmlns="http://www.w3.org/2000/svg" aria-label="BNB Chain logo" fill="#F3BA2F">
  <path d="M12 2.2 9.56 4.64 12 7.08l2.44-2.44L12 2.2z"/>
  <path d="M6.68 7.52 4.24 9.96l2.44 2.44 2.44-2.44-2.44-2.44z"/>
  <path d="M17.32 7.52 14.88 9.96l2.44 2.44 2.44-2.44-2.44-2.44z"/>
  <path d="M12 7.52 9.56 9.96 12 12.4l2.44-2.44L12 7.52z"/>
  <path d="M12 12.84 9.56 15.28 12 17.72l2.44-2.44L12 12.84z"/>
  <path d="M6.68 13.28 4.24 15.72 12 23.48l7.76-7.76-2.44-2.44L12 18.6l-5.32-5.32z"/>
</svg>
